<?xml version="1.0" encoding="UTF-8"?>
<svg width="266px" height="111px" viewBox="0 0 266 111" version="1.1" xmlns="http://www.w3.org/2000/svg" xmlns:xlink="http://www.w3.org/1999/xlink">
    <!-- Generator: Sketch 55 (78076) - https://sketchapp.com -->
    <title>Stadtteilschule-am-Hafen-Logo--white-transparent@2x</title>
    <desc>Created with Sketch.</desc>
    <g id="Stadtteilschule-am-Hafen-Logo--white-transparent" stroke="none" stroke-width="1" fill="none" fill-rule="evenodd">
        <g id="Group" fill="#FFFFFF">
            <g id="Sign">
                <polygon id="Fill-1" fill-opacity="0.9" points="55.1443251 76.1243368 40.7388448 90.5545333 40.7378806 70.1536872 20.3729416 70.1536872 34.7707086 55.7244564 55.1423968 55.7244564"></polygon>
                <polygon id="Fill-2" fill-opacity="0.7" points="40.718019 20.8801821 40.7170548 0.473541026 55.1196427 14.8989085 69.519338 0.472575214 69.5251229 20.8743872 55.1196427 35.3045838"></polygon>
                <polygon id="Fill-3" fill-opacity="0.15" points="20.3645534 41.2894308 5.95907312 26.8592342 26.3259405 26.8582684 26.3249763 6.45838803 40.7304566 20.8808581 40.7304566 41.2874991"></polygon>
                <polygon id="Fill-4" fill-opacity="0.4" points="0 41.3013103 14.4006595 55.725712 0.000964157706 70.1530111 20.3726523 70.1530111 34.7713835 55.725712 20.3668674 41.2964812"></polygon>
                <polygon id="Fill-5" fill-opacity="0.3" points="40.7543677 90.5519256 40.7591885 110.953738 55.159848 96.5283701 69.5614717 110.953738 69.5614717 90.5470966 55.159848 76.1226949"></polygon>
                <polygon id="Fill-6" fill-opacity="0.2" points="89.9148409 70.1525282 104.320321 84.5827248 83.9534538 84.5836906 83.9544179 104.983571 69.5489376 90.5620667 69.5489376 70.1544598"></polygon>
            </g>
            <path d="M92.07,22.36 C95.91,22.36 98.4,20.08 98.4,17.05 C98.4,14.02 96.45,12.79 94.23,11.8 L91.23,10.48 C89.79,9.82 87.81,8.95 87.81,6.67 C87.81,4.51 89.58,3.13 92.19,3.13 C94.17,3.13 95.73,3.94 96.9,5.14 L97.68,4.24 C96.48,2.95 94.56,1.87 92.19,1.87 C88.89,1.87 86.43,3.88 86.43,6.73 C86.43,9.67 88.74,10.9 90.45,11.65 L93.45,13 C95.4,13.87 96.99,14.65 96.99,17.14 C96.99,19.48 95.1,21.1 92.07,21.1 C89.79,21.1 87.72,20.05 86.28,18.43 L85.38,19.39 C86.94,21.13 89.19,22.36 92.07,22.36 L92.07,22.36 Z M106.32,22.36 C106.92,22.36 107.82,22.12 108.66,21.82 L108.3,20.74 C107.79,20.98 107.04,21.19 106.5,21.19 C104.52,21.19 104.07,19.96 104.07,18.13 L104.07,8.74 L108.24,8.74 L108.24,7.6 L104.07,7.6 L104.07,3.43 L102.93,3.43 L102.75,7.6 L100.47,7.72 L100.47,8.74 L102.72,8.74 L102.72,18.01 C102.72,20.59 103.53,22.36 106.32,22.36 L106.32,22.36 Z M114.9,22.36 C116.79,22.36 118.53,21.31 120,20.14 L120.09,20.14 L120.21,22 L121.35,22 L121.35,12.79 C121.35,9.7 120.18,7.24 116.79,7.24 C114.45,7.24 112.44,8.38 111.42,9.1 L112.02,10.09 C113.01,9.37 114.69,8.41 116.61,8.41 C119.46,8.41 120.06,10.78 120.03,12.97 C113.61,13.69 110.73,15.22 110.73,18.4 C110.73,21.13 112.62,22.36 114.9,22.36 L114.9,22.36 Z M115.14,21.22 C113.49,21.22 112.08,20.41 112.08,18.34 C112.08,16.06 114.09,14.68 120.03,13.99 L120.03,18.88 C118.23,20.41 116.79,21.22 115.14,21.22 L115.14,21.22 Z M131.25,22.36 C133.17,22.36 134.76,21.31 135.93,20.14 L136.02,20.14 L136.14,22 L137.28,22 L137.28,0.43 L135.96,0.43 L135.96,6.37 L136.02,9.01 C134.58,7.9 133.41,7.24 131.67,7.24 C128.25,7.24 125.28,10.18 125.28,14.83 C125.28,19.69 127.62,22.36 131.25,22.36 L131.25,22.36 Z M131.43,21.19 C128.37,21.19 126.69,18.64 126.69,14.83 C126.69,11.2 128.88,8.41 131.76,8.41 C133.17,8.41 134.43,8.92 135.96,10.27 L135.96,18.82 C134.43,20.35 133.02,21.19 131.43,21.19 L131.43,21.19 Z M146.73,22.36 C147.33,22.36 148.23,22.12 149.07,21.82 L148.71,20.74 C148.2,20.98 147.45,21.19 146.91,21.19 C144.93,21.19 144.48,19.96 144.48,18.13 L144.48,8.74 L148.65,8.74 L148.65,7.6 L144.48,7.6 L144.48,3.43 L143.34,3.43 L143.16,7.6 L140.88,7.72 L140.88,8.74 L143.13,8.74 L143.13,18.01 C143.13,20.59 143.94,22.36 146.73,22.36 L146.73,22.36 Z M156.09,22.36 C156.69,22.36 157.59,22.12 158.43,21.82 L158.07,20.74 C157.56,20.98 156.81,21.19 156.27,21.19 C154.29,21.19 153.84,19.96 153.84,18.13 L153.84,8.74 L158.01,8.74 L158.01,7.6 L153.84,7.6 L153.84,3.43 L152.7,3.43 L152.52,7.6 L150.24,7.72 L150.24,8.74 L152.49,8.74 L152.49,18.01 C152.49,20.59 153.3,22.36 156.09,22.36 L156.09,22.36 Z M166.98,22.36 C169.08,22.36 170.37,21.64 171.51,20.95 L170.97,19.93 C169.89,20.71 168.66,21.22 167.1,21.22 C163.86,21.22 161.73,18.61 161.67,14.98 L172.05,14.98 C172.11,14.62 172.11,14.26 172.11,13.9 C172.11,9.67 170.01,7.24 166.59,7.24 C163.38,7.24 160.32,10.12 160.32,14.83 C160.32,19.54 163.29,22.36 166.98,22.36 L166.98,22.36 Z M161.67,13.9 C161.97,10.45 164.16,8.38 166.62,8.38 C169.2,8.38 170.85,10.21 170.85,13.9 L161.67,13.9 Z M176.01,22 L177.33,22 L177.33,7.6 L176.01,7.6 L176.01,22 Z M176.7,4.12 C177.36,4.12 177.9,3.64 177.9,2.95 C177.9,2.2 177.36,1.75 176.7,1.75 C176.04,1.75 175.5,2.2 175.5,2.95 C175.5,3.64 176.04,4.12 176.7,4.12 L176.7,4.12 Z M184.65,22.36 C185.07,22.36 185.34,22.3 185.61,22.21 L185.37,21.13 C185.07,21.19 184.95,21.19 184.83,21.19 C184.47,21.19 184.2,20.89 184.2,20.26 L184.2,0.43 L182.88,0.43 L182.88,20.08 C182.88,21.64 183.48,22.36 184.65,22.36 L184.65,22.36 Z M193.47,22.36 C196.59,22.36 198.33,20.47 198.33,18.31 C198.33,15.49 195.87,14.74 193.62,13.9 C191.91,13.27 190.23,12.64 190.23,10.99 C190.23,9.67 191.25,8.38 193.47,8.38 C194.94,8.38 195.96,8.95 196.92,9.67 L197.64,8.74 C196.59,7.87 195.06,7.24 193.53,7.24 C190.53,7.24 188.88,8.98 188.88,11.08 C188.88,13.54 191.28,14.41 193.47,15.19 C195.12,15.79 196.98,16.57 196.98,18.37 C196.98,19.9 195.81,21.22 193.56,21.22 C191.49,21.22 190.2,20.41 188.97,19.39 L188.19,20.38 C189.48,21.46 191.34,22.36 193.47,22.36 L193.47,22.36 Z M207.48,22.36 C209.31,22.36 210.84,21.55 212.07,20.47 L211.38,19.54 C210.39,20.44 209.07,21.19 207.54,21.19 C204.39,21.19 202.32,18.61 202.32,14.83 C202.32,11.02 204.6,8.41 207.54,8.41 C208.95,8.41 210.03,9.07 210.96,9.94 L211.74,9.01 C210.75,8.11 209.49,7.24 207.51,7.24 C204,7.24 200.94,10 200.94,14.83 C200.94,19.6 203.76,22.36 207.48,22.36 L207.48,22.36 Z M215.61,22 L216.93,22 L216.93,11.14 C218.7,9.34 219.93,8.44 221.64,8.44 C223.98,8.44 224.94,9.88 224.94,12.94 L224.94,22 L226.26,22 L226.26,12.76 C226.26,9.04 224.88,7.24 221.91,7.24 C219.93,7.24 218.43,8.35 216.93,9.85 L216.93,0.43 L215.61,0.43 L215.61,22 Z M235.59,22.36 C237.57,22.36 239.07,21.25 240.48,19.6 L240.54,19.6 L240.69,22 L241.8,22 L241.8,7.6 L240.48,7.6 L240.48,18.22 C238.8,20.26 237.54,21.16 235.83,21.16 C233.52,21.16 232.56,19.72 232.56,16.66 L232.56,7.6 L231.24,7.6 L231.24,16.84 C231.24,20.56 232.62,22.36 235.59,22.36 L235.59,22.36 Z M249.09,22.36 C249.51,22.36 249.78,22.3 250.05,22.21 L249.81,21.13 C249.51,21.19 249.39,21.19 249.27,21.19 C248.91,21.19 248.64,20.89 248.64,20.26 L248.64,0.43 L247.32,0.43 L247.32,20.08 C247.32,21.64 247.92,22.36 249.09,22.36 L249.09,22.36 Z M259.89,22.36 C261.99,22.36 263.28,21.64 264.42,20.95 L263.88,19.93 C262.8,20.71 261.57,21.22 260.01,21.22 C256.77,21.22 254.64,18.61 254.58,14.98 L264.96,14.98 C265.02,14.62 265.02,14.26 265.02,13.9 C265.02,9.67 262.92,7.24 259.5,7.24 C256.29,7.24 253.23,10.12 253.23,14.83 C253.23,19.54 256.2,22.36 259.89,22.36 L259.89,22.36 Z M254.58,13.9 C254.88,10.45 257.07,8.38 259.53,8.38 C262.11,8.38 263.76,10.21 263.76,13.9 L254.58,13.9 Z M89.91,53.36 C91.8,53.36 93.54,52.31 95.01,51.14 L95.1,51.14 L95.22,53 L96.36,53 L96.36,43.79 C96.36,40.7 95.19,38.24 91.8,38.24 C89.46,38.24 87.45,39.38 86.43,40.1 L87.03,41.09 C88.02,40.37 89.7,39.41 91.62,39.41 C94.47,39.41 95.07,41.78 95.04,43.97 C88.62,44.69 85.74,46.22 85.74,49.4 C85.74,52.13 87.63,53.36 89.91,53.36 L89.91,53.36 Z M90.15,52.22 C88.5,52.22 87.09,51.41 87.09,49.34 C87.09,47.06 89.1,45.68 95.04,44.99 L95.04,49.88 C93.24,51.41 91.8,52.22 90.15,52.22 L90.15,52.22 Z M101.49,53 L102.81,53 L102.81,42.14 C104.4,40.34 105.84,39.44 107.13,39.44 C109.35,39.44 110.37,40.88 110.37,43.94 L110.37,53 L111.69,53 L111.69,42.14 C113.28,40.34 114.66,39.44 116.01,39.44 C118.2,39.44 119.22,40.88 119.22,43.94 L119.22,53 L120.57,53 L120.57,43.76 C120.57,40.04 119.13,38.24 116.25,38.24 C114.6,38.24 113.01,39.38 111.36,41.18 C110.85,39.41 109.68,38.24 107.37,38.24 C105.78,38.24 104.13,39.35 102.84,40.82 L102.75,40.82 L102.63,38.6 L101.49,38.6 L101.49,53 Z M132,53 L133.38,53 L133.38,43.1 L143.97,43.1 L143.97,53 L145.35,53 L145.35,33.23 L143.97,33.23 L143.97,41.9 L133.38,41.9 L133.38,33.23 L132,33.23 L132,53 Z M154.17,53.36 C156.06,53.36 157.8,52.31 159.27,51.14 L159.36,51.14 L159.48,53 L160.62,53 L160.62,43.79 C160.62,40.7 159.45,38.24 156.06,38.24 C153.72,38.24 151.71,39.38 150.69,40.1 L151.29,41.09 C152.28,40.37 153.96,39.41 155.88,39.41 C158.73,39.41 159.33,41.78 159.3,43.97 C152.88,44.69 150,46.22 150,49.4 C150,52.13 151.89,53.36 154.17,53.36 L154.17,53.36 Z M154.41,52.22 C152.76,52.22 151.35,51.41 151.35,49.34 C151.35,47.06 153.36,45.68 159.3,44.99 L159.3,49.88 C157.5,51.41 156.06,52.22 154.41,52.22 L154.41,52.22 Z M165.96,53 L167.28,53 L167.28,39.74 L170.61,39.74 L170.61,38.6 L167.28,38.6 L167.28,35.48 C167.28,33.38 168,32.21 169.53,32.21 C170.07,32.21 170.67,32.33 171.27,32.63 L171.63,31.55 C170.97,31.25 170.19,31.07 169.53,31.07 C167.25,31.07 165.96,32.54 165.96,35.39 L165.96,38.6 L163.98,38.72 L163.98,39.74 L165.96,39.74 L165.96,53 Z M179.1,53.36 C181.2,53.36 182.49,52.64 183.63,51.95 L183.09,50.93 C182.01,51.71 180.78,52.22 179.22,52.22 C175.98,52.22 173.85,49.61 173.79,45.98 L184.17,45.98 C184.23,45.62 184.23,45.26 184.23,44.9 C184.23,40.67 182.13,38.24 178.71,38.24 C175.5,38.24 172.44,41.12 172.44,45.83 C172.44,50.54 175.41,53.36 179.1,53.36 L179.1,53.36 Z M173.79,44.9 C174.09,41.45 176.28,39.38 178.74,39.38 C181.32,39.38 182.97,41.21 182.97,44.9 L173.79,44.9 Z M188.13,53 L189.45,53 L189.45,42.14 C191.22,40.34 192.45,39.44 194.16,39.44 C196.5,39.44 197.46,40.88 197.46,43.94 L197.46,53 L198.78,53 L198.78,43.76 C198.78,40.04 197.4,38.24 194.43,38.24 C192.45,38.24 190.95,39.35 189.48,40.82 L189.39,40.82 L189.27,38.6 L188.13,38.6 L188.13,53 Z" id="Stadtteilschule-am-H"></path>
        </g>
    </g>
</svg>